<?xml version="1.0" encoding="utf-8"?>
<!-- Generator: Adobe Illustrator 17.0.0, SVG Export Plug-In . SVG Version: 6.00 Build 0)  -->
<!DOCTYPE svg PUBLIC "-//W3C//DTD SVG 1.1//EN" "http://www.w3.org/Graphics/SVG/1.1/DTD/svg11.dtd">
<svg version="1.1" id="Ebene_1" xmlns="http://www.w3.org/2000/svg" xmlns:xlink="http://www.w3.org/1999/xlink" x="0px" y="0px"
	 width="160.41px" height="89.25px" viewBox="0 0 160.41 89.25" enable-background="new 0 0 160.41 89.25" xml:space="preserve">
<g>
	<g>
		
			<rect x="23.127" y="57.485" transform="matrix(-0.308 0.9514 -0.9514 -0.308 92.6491 48.0163)" fill="#004481" width="11.47" height="0.438"/>
	</g>
	<g>
		<polygon fill="#004481" points="30.834,52.178 27.544,42.525 27.262,42.801 38.473,46.885 38.672,46.957 38.751,46.761 
			42.137,38.375 41.729,38.211 38.344,46.597 38.623,46.473 27.412,42.391 26.981,42.232 27.13,42.666 30.419,52.318 		"/>
	</g>
	<g>
		
			<rect x="36.197" y="50.231" transform="matrix(0.4403 0.8978 -0.8978 0.4403 67.9062 -8.0344)" fill="#004481" width="8.401" height="0.439"/>
	</g>
	<g>
		<polygon fill="#004481" points="17.241,49.133 27.453,42.782 27.509,42.747 27.537,42.688 32.601,31.661 32.202,31.479 
			27.138,42.504 27.221,42.41 17.01,48.761 		"/>
	</g>
	<g>
		
			<rect x="16.169" y="40.16" transform="matrix(0.9243 0.3818 -0.3818 0.9243 17.0807 -5.3301)" fill="#004481" width="11.608" height="0.439"/>
	</g>
</g>
<g>
	<g>
		<circle fill="#004481" cx="27.096" cy="63.161" r="1.367"/>
		<circle fill="#004481" cx="41.932" cy="38.293" r="3.098"/>
		<circle fill="#004481" cx="42.248" cy="54.223" r="1.294"/>
		<circle fill="#004481" cx="17.125" cy="48.948" r="1.866"/>
		<circle fill="#004481" cx="16.608" cy="38.164" r="2.422"/>
	</g>
	<g>
		<rect x="29.781" y="28.949" fill="#EB690B" width="5.241" height="5.24"/>
		<rect x="37.3" y="45.432" fill="#EB690B" width="2.496" height="2.494"/>
		<rect x="28.213" y="49.833" fill="#EB690B" width="4.828" height="4.829"/>
		<rect x="25.707" y="40.966" fill="#EB690B" width="3.261" height="3.261"/>
	</g>
</g>
<g>
	<path fill="#4B4B4D" d="M53.679,49.178c-0.012,0.24-0.024,0.508-0.024,0.913v1.93c0,0.762-0.137,1.229-0.428,1.517
		c-0.291,0.302-0.712,0.398-1.09,0.398c-0.359,0-0.756-0.096-0.998-0.274l0.137-0.46c0.198,0.138,0.508,0.261,0.88,0.261
		c0.558,0,0.966-0.323,0.966-1.161v-0.371h-0.012c-0.167,0.309-0.489,0.556-0.954,0.556c-0.743,0-1.276-0.7-1.276-1.621
		c0-1.126,0.663-1.765,1.351-1.765c0.521,0,0.806,0.302,0.936,0.577h0.013l0.024-0.501H53.679z M53.115,50.489
		c0-0.103-0.006-0.192-0.031-0.275c-0.099-0.35-0.365-0.639-0.762-0.639c-0.521,0-0.892,0.488-0.892,1.257
		c0,0.652,0.297,1.195,0.886,1.195c0.334,0,0.638-0.233,0.756-0.618c0.03-0.103,0.043-0.22,0.043-0.323V50.489z"/>
	<path fill="#4B4B4D" d="M56.137,52.501l-0.043-0.419h-0.019c-0.167,0.261-0.489,0.495-0.917,0.495
		c-0.607,0-0.917-0.474-0.917-0.955c0-0.803,0.645-1.243,1.803-1.236v-0.069c0-0.274-0.068-0.769-0.682-0.769
		c-0.278,0-0.569,0.096-0.78,0.247l-0.124-0.398c0.248-0.179,0.607-0.295,0.985-0.295c0.917,0,1.14,0.693,1.14,1.359v1.243
		c0,0.288,0.013,0.57,0.05,0.796H56.137z M56.057,50.805c-0.595-0.014-1.271,0.103-1.271,0.748c0,0.392,0.235,0.577,0.515,0.577
		c0.39,0,0.638-0.275,0.725-0.556c0.019-0.062,0.031-0.131,0.031-0.192V50.805z"/>
	<path fill="#4B4B4D" d="M58.012,48.223v0.955h0.78v0.46h-0.78v1.792c0,0.412,0.104,0.646,0.408,0.646
		c0.143,0,0.248-0.021,0.316-0.041l0.024,0.453c-0.105,0.048-0.272,0.083-0.483,0.083c-0.254,0-0.458-0.089-0.588-0.254
		c-0.155-0.178-0.211-0.474-0.211-0.865v-1.812h-0.465v-0.46h0.465v-0.797L58.012,48.223z"/>
	<path fill="#4B4B4D" d="M59.587,50.949c0.013,0.817,0.483,1.153,1.028,1.153c0.391,0,0.626-0.075,0.83-0.171l0.093,0.433
		c-0.191,0.096-0.521,0.206-0.997,0.206c-0.923,0-1.475-0.673-1.475-1.676c0-1.002,0.533-1.792,1.406-1.792
		c0.979,0,1.239,0.954,1.239,1.565c0,0.124-0.013,0.22-0.018,0.282H59.587z M61.186,50.517c0.006-0.385-0.143-0.982-0.756-0.982
		c-0.552,0-0.793,0.563-0.837,0.982H61.186z"/>
	<path fill="#4B4B4D" d="M62.521,49.178l0.396,1.689c0.087,0.371,0.167,0.714,0.224,1.058h0.019
		c0.067-0.336,0.167-0.694,0.266-1.051l0.489-1.696h0.459l0.465,1.662c0.111,0.398,0.198,0.748,0.266,1.085h0.02
		c0.049-0.336,0.13-0.687,0.229-1.078l0.428-1.668h0.539l-0.967,3.323h-0.495l-0.459-1.586c-0.105-0.371-0.191-0.701-0.267-1.092
		h-0.012c-0.074,0.398-0.167,0.741-0.272,1.099l-0.483,1.579h-0.496l-0.904-3.323H62.521z"/>
	<path fill="#4B4B4D" d="M68.417,52.501l-0.043-0.419h-0.019c-0.168,0.261-0.489,0.495-0.917,0.495
		c-0.607,0-0.917-0.474-0.917-0.955c0-0.803,0.645-1.243,1.803-1.236v-0.069c0-0.274-0.068-0.769-0.682-0.769
		c-0.278,0-0.569,0.096-0.78,0.247l-0.124-0.398c0.248-0.179,0.607-0.295,0.985-0.295c0.917,0,1.14,0.693,1.14,1.359v1.243
		c0,0.288,0.013,0.57,0.05,0.796H68.417z M68.337,50.805c-0.595-0.014-1.271,0.103-1.271,0.748c0,0.392,0.235,0.577,0.515,0.577
		c0.39,0,0.638-0.275,0.725-0.556c0.019-0.062,0.031-0.131,0.031-0.192V50.805z"/>
	<path fill="#4B4B4D" d="M69.809,49.178l0.657,1.964c0.067,0.22,0.142,0.48,0.191,0.68h0.013c0.056-0.199,0.117-0.453,0.192-0.693
		l0.595-1.95h0.576l-0.818,2.369c-0.391,1.14-0.656,1.724-1.028,2.081c-0.267,0.261-0.532,0.364-0.669,0.392l-0.137-0.508
		c0.137-0.048,0.316-0.144,0.478-0.295c0.148-0.13,0.334-0.364,0.458-0.673c0.025-0.062,0.044-0.11,0.044-0.144
		c0-0.034-0.013-0.083-0.037-0.158l-1.109-3.062H69.809z"/>
	<path fill="#4B4B4D" d="M73.729,52.501v-2.863h-0.421v-0.46h0.421V49.02c0-0.467,0.093-0.893,0.347-1.16
		c0.205-0.22,0.477-0.309,0.731-0.309c0.192,0,0.359,0.048,0.465,0.096l-0.074,0.467c-0.081-0.041-0.192-0.076-0.348-0.076
		c-0.464,0-0.582,0.454-0.582,0.961v0.179h0.725v0.46h-0.725v2.863H73.729z"/>
	<path fill="#4B4B4D" d="M78.03,50.812c0,1.229-0.769,1.765-1.493,1.765c-0.812,0-1.438-0.659-1.438-1.71
		c0-1.112,0.656-1.765,1.487-1.765C77.447,49.102,78.03,49.795,78.03,50.812z M75.651,50.846c0,0.728,0.378,1.277,0.91,1.277
		c0.521,0,0.911-0.542,0.911-1.291c0-0.563-0.254-1.277-0.898-1.277C75.93,49.555,75.651,50.214,75.651,50.846z"/>
	<path fill="#4B4B4D" d="M78.635,50.214c0-0.391-0.006-0.728-0.024-1.037h0.477l0.019,0.652h0.025
		c0.136-0.446,0.464-0.728,0.83-0.728c0.062,0,0.105,0.007,0.154,0.021v0.57c-0.056-0.014-0.111-0.021-0.185-0.021
		c-0.384,0-0.656,0.323-0.732,0.776c-0.012,0.083-0.024,0.179-0.024,0.282v1.771h-0.539V50.214z"/>
	<path fill="#4B4B4D" d="M81.805,47.626h0.545v2.073h0.013c0.087-0.171,0.223-0.322,0.391-0.425
		c0.161-0.103,0.353-0.172,0.558-0.172c0.402,0,1.047,0.275,1.047,1.421v1.978h-0.546v-1.909c0-0.536-0.179-0.989-0.693-0.989
		c-0.354,0-0.632,0.274-0.731,0.604c-0.03,0.083-0.037,0.172-0.037,0.289v2.005h-0.545V47.626z"/>
	<path fill="#4B4B4D" d="M85.464,50.949c0.013,0.817,0.483,1.153,1.028,1.153c0.391,0,0.626-0.075,0.83-0.171l0.093,0.433
		c-0.191,0.096-0.521,0.206-0.997,0.206c-0.923,0-1.475-0.673-1.475-1.676c0-1.002,0.533-1.792,1.406-1.792
		c0.979,0,1.239,0.954,1.239,1.565c0,0.124-0.013,0.22-0.019,0.282H85.464z M87.062,50.517c0.006-0.385-0.143-0.982-0.756-0.982
		c-0.552,0-0.793,0.563-0.837,0.982H87.062z"/>
	<path fill="#4B4B4D" d="M89.841,52.501l-0.043-0.419h-0.019c-0.168,0.261-0.489,0.495-0.917,0.495
		c-0.607,0-0.917-0.474-0.917-0.955c0-0.803,0.645-1.243,1.803-1.236v-0.069c0-0.274-0.068-0.769-0.682-0.769
		c-0.278,0-0.569,0.096-0.78,0.247l-0.124-0.398c0.248-0.179,0.607-0.295,0.985-0.295c0.917,0,1.14,0.693,1.14,1.359v1.243
		c0,0.288,0.013,0.57,0.05,0.796H89.841z M89.761,50.805c-0.595-0.014-1.271,0.103-1.271,0.748c0,0.392,0.235,0.577,0.515,0.577
		c0.39,0,0.638-0.275,0.725-0.556c0.019-0.062,0.031-0.131,0.031-0.192V50.805z"/>
	<path fill="#4B4B4D" d="M91.084,47.626h0.545v4.875h-0.545V47.626z"/>
	<path fill="#4B4B4D" d="M93.117,48.223v0.955h0.78v0.46h-0.78v1.792c0,0.412,0.104,0.646,0.408,0.646
		c0.143,0,0.248-0.021,0.316-0.041l0.024,0.453c-0.106,0.048-0.272,0.083-0.483,0.083c-0.254,0-0.458-0.089-0.588-0.254
		c-0.155-0.178-0.211-0.474-0.211-0.865v-1.812h-0.465v-0.46h0.465v-0.797L93.117,48.223z"/>
	<path fill="#4B4B4D" d="M94.427,47.626h0.545v2.073h0.013c0.087-0.171,0.223-0.322,0.391-0.425
		c0.161-0.103,0.353-0.172,0.558-0.172c0.402,0,1.047,0.275,1.047,1.421v1.978h-0.546v-1.909c0-0.536-0.18-0.989-0.693-0.989
		c-0.353,0-0.632,0.274-0.731,0.604c-0.03,0.083-0.037,0.172-0.037,0.289v2.005h-0.545V47.626z"/>
</g>
<g>
	<g>
		
			<rect x="23.148" y="57.485" transform="matrix(-0.308 0.9514 -0.9514 -0.308 92.6766 47.9963)" fill="#004481" width="11.47" height="0.438"/>
	</g>
	<g>
		<polygon fill="#004481" points="30.855,52.177 27.565,42.525 27.283,42.801 38.494,46.884 38.693,46.957 38.772,46.761 
			42.158,38.374 41.75,38.211 38.365,46.597 38.644,46.472 27.433,42.39 27.002,42.233 27.151,42.667 30.44,52.318 		"/>
	</g>
	<g>
		
			<rect x="36.217" y="50.231" transform="matrix(0.4403 0.8979 -0.8979 0.4403 67.921 -8.0518)" fill="#004481" width="8.402" height="0.439"/>
	</g>
	<g>
		<polygon fill="#004481" points="17.262,49.134 27.474,42.782 27.53,42.747 27.558,42.687 32.622,31.661 32.223,31.478 
			27.159,42.505 27.242,42.409 17.031,48.761 		"/>
	</g>
	<g>
		
			<rect x="16.19" y="40.16" transform="matrix(0.9242 0.3819 -0.3819 0.9242 17.0856 -5.3385)" fill="#004481" width="11.608" height="0.44"/>
	</g>
</g>
<g>
	<g>
		<circle fill="#004481" cx="27.117" cy="63.161" r="1.367"/>
		<path fill="#004481" d="M38.855,38.292c0,1.713,1.388,3.1,3.099,3.1c1.711,0,3.098-1.387,3.098-3.1
			c0-1.709-1.387-3.096-3.098-3.096C40.243,35.196,38.855,36.583,38.855,38.292z"/>
		<circle fill="#004481" cx="42.269" cy="54.222" r="1.294"/>
		<circle fill="#004481" cx="17.146" cy="48.948" r="1.866"/>
		<circle fill="#004481" cx="16.629" cy="38.163" r="2.422"/>
	</g>
	<g>
		<rect x="29.802" y="28.95" fill="#EB690B" width="5.241" height="5.239"/>
		<rect x="37.321" y="45.431" fill="#EB690B" width="2.496" height="2.495"/>
		<rect x="28.234" y="49.833" fill="#EB690B" width="4.828" height="4.828"/>
		<rect x="25.728" y="40.966" fill="#EB690B" width="3.261" height="3.26"/>
	</g>
</g>
<g>
	<g>
		
			<rect x="23.194" y="57.485" transform="matrix(-0.308 0.9514 -0.9514 -0.308 92.7379 47.9517)" fill="#004481" width="11.47" height="0.438"/>
	</g>
	<g>
		<polygon fill="#004481" points="30.902,52.177 27.612,42.525 27.33,42.801 38.541,46.884 38.74,46.957 38.819,46.761 
			42.205,38.374 41.797,38.211 38.412,46.597 38.691,46.472 27.48,42.39 27.049,42.233 27.198,42.667 30.487,52.318 		"/>
	</g>
	<g>
		
			<rect x="36.264" y="50.231" transform="matrix(0.4403 0.8979 -0.8979 0.4403 67.9473 -8.0939)" fill="#004481" width="8.402" height="0.439"/>
	</g>
	<g>
		<polygon fill="#004481" points="17.309,49.134 27.521,42.782 27.577,42.747 27.605,42.687 32.668,31.661 32.27,31.478 
			27.206,42.505 27.289,42.409 17.078,48.761 		"/>
	</g>
	<g>
		
			<rect x="16.236" y="40.16" transform="matrix(0.9242 0.3819 -0.3819 0.9242 17.0892 -5.3564)" fill="#004481" width="11.608" height="0.44"/>
	</g>
</g>
<g>
	<g>
		<circle fill="#004481" cx="27.164" cy="63.161" r="1.367"/>
		<path fill="#004481" d="M38.902,38.292c0,1.713,1.388,3.1,3.099,3.1s3.098-1.387,3.098-3.1c0-1.709-1.387-3.096-3.098-3.096
			S38.902,36.583,38.902,38.292z"/>
		<circle fill="#004481" cx="42.316" cy="54.222" r="1.294"/>
		<circle fill="#004481" cx="17.193" cy="48.948" r="1.866"/>
		<circle fill="#004481" cx="16.676" cy="38.163" r="2.422"/>
	</g>
	<g>
		<rect x="29.849" y="28.95" fill="#EB690B" width="5.241" height="5.239"/>
		<rect x="37.368" y="45.431" fill="#EB690B" width="2.496" height="2.495"/>
		<rect x="28.281" y="49.833" fill="#EB690B" width="4.828" height="4.828"/>
		<rect x="25.775" y="40.966" fill="#EB690B" width="3.261" height="3.26"/>
	</g>
</g>
<g>
	<g>
		<g>
			<path fill="#4B4B4D" d="M58.721,41.548c-0.327,0.489-0.742,0.863-1.247,1.122c-0.505,0.258-1.056,0.428-1.653,0.509
				c-0.598,0.081-1.173,0.121-1.728,0.121h-3.88V31.259h4.102c0.616,0,1.182,0.06,1.7,0.181c0.517,0.121,0.963,0.302,1.339,0.543
				c0.375,0.242,0.668,0.549,0.877,0.923c0.209,0.374,0.314,0.808,0.314,1.303c0,0.586-0.142,1.095-0.425,1.526
				c-0.283,0.432-0.72,0.756-1.311,0.975c0.727,0.173,1.309,0.518,1.746,1.035c0.437,0.518,0.656,1.133,0.656,1.846
				C59.21,40.407,59.047,41.06,58.721,41.548z M55.423,33.449c-0.358-0.23-0.868-0.345-1.533-0.345h-1.09v3.019h1.053
				c0.702,0,1.229-0.135,1.58-0.405c0.351-0.27,0.526-0.664,0.526-1.182C55.958,34.042,55.78,33.68,55.423,33.449z M56.014,38.392
				c-0.407-0.316-0.979-0.475-1.718-0.475h-1.497v3.502h1.497c0.764,0,1.342-0.158,1.737-0.474c0.394-0.316,0.591-0.745,0.591-1.285
				C56.624,39.131,56.42,38.708,56.014,38.392z"/>
			<path fill="#4B4B4D" d="M68.808,41.548c-0.327,0.489-0.742,0.863-1.247,1.122c-0.505,0.258-1.056,0.428-1.653,0.509
				c-0.598,0.081-1.173,0.121-1.728,0.121H60.3V31.259h4.102c0.616,0,1.182,0.06,1.7,0.181c0.517,0.121,0.963,0.302,1.339,0.543
				c0.376,0.242,0.668,0.549,0.878,0.923c0.209,0.374,0.314,0.808,0.314,1.303c0,0.586-0.142,1.095-0.425,1.526
				c-0.283,0.432-0.72,0.756-1.312,0.975c0.727,0.173,1.309,0.518,1.746,1.035c0.437,0.518,0.656,1.133,0.656,1.846
				C69.297,40.407,69.134,41.06,68.808,41.548z M65.51,33.449c-0.358-0.23-0.868-0.345-1.533-0.345h-1.09v3.019h1.053
				c0.702,0,1.229-0.135,1.579-0.405c0.351-0.27,0.526-0.664,0.526-1.182C66.045,34.042,65.867,33.68,65.51,33.449z M66.101,38.392
				c-0.407-0.316-0.979-0.475-1.718-0.475h-1.497v3.502h1.497c0.764,0,1.342-0.158,1.737-0.474c0.394-0.316,0.591-0.745,0.591-1.285
				C66.71,39.131,66.507,38.708,66.101,38.392z"/>
			<path fill="#4B4B4D" d="M82.618,43.299c-0.012-1.61-0.055-3.226-0.129-4.847c-0.074-1.621-0.154-3.168-0.24-4.641h-0.019
				l-3.307,9.488h-2.55l-3.344-9.488h-0.019c-0.074,1.449-0.142,2.987-0.203,4.615c-0.062,1.627-0.099,3.251-0.111,4.873h-2.31
				c0.025-2.001,0.093-4.002,0.204-6.003c0.111-2.001,0.265-4.014,0.461-6.038h3.621l3.085,9.125h0.037l3.011-9.125h3.603
				c0.197,2.035,0.354,4.06,0.471,6.072c0.117,2.013,0.188,4.002,0.212,5.969H82.618z"/>
			<path fill="#4B4B4D" d="M93.314,43.299l-2.974-5.02h-1.201v5.02h-2.587V31.259h4.434c0.665,0,1.269,0.069,1.811,0.207
				c0.542,0.138,1.007,0.342,1.395,0.612c0.388,0.27,0.689,0.607,0.905,1.009c0.215,0.403,0.323,0.875,0.323,1.415
				c0,0.817-0.234,1.504-0.702,2.062c-0.468,0.558-1.146,0.958-2.032,1.199l3.51,5.538H93.314z M92.233,33.579
				c-0.327-0.282-0.822-0.422-1.487-0.422h-1.607v3.226h1.33c0.727,0,1.284-0.158,1.672-0.474c0.388-0.316,0.582-0.733,0.582-1.251
				C92.723,34.22,92.56,33.861,92.233,33.579z"/>
			<path fill="#4B4B4D" d="M97.193,43.299V31.259h2.586v12.041H97.193z"/>
			<path fill="#4B4B4D" d="M101.055,39.608V37.71h4.859v1.897H101.055z"/>
			<path fill="#4B4B4D" d="M107.188,43.299V31.259h7.593v1.897h-5.007v2.967h4.323v1.897h-4.323v3.381h5.081v1.897H107.188z"/>
			<path fill="#4B4B4D" d="M123.408,43.299l-2.974-5.02h-1.201v5.02h-2.586V31.259h4.434c0.665,0,1.269,0.069,1.811,0.207
				c0.542,0.138,1.007,0.342,1.395,0.612c0.388,0.27,0.689,0.607,0.905,1.009c0.215,0.403,0.323,0.875,0.323,1.415
				c0,0.817-0.234,1.504-0.702,2.062c-0.468,0.558-1.146,0.958-2.032,1.199l3.51,5.538H123.408z M122.328,33.579
				c-0.327-0.282-0.822-0.422-1.487-0.422h-1.607v3.226h1.331c0.727,0,1.284-0.158,1.672-0.474c0.388-0.316,0.582-0.733,0.582-1.251
				C122.817,34.22,122.654,33.861,122.328,33.579z"/>
			<path fill="#4B4B4D" d="M127.288,43.299V31.259h2.586v12.041H127.288z"/>
			<path fill="#4B4B4D" d="M139.518,43.342c-0.628,0.109-1.244,0.164-1.847,0.164c-2.106,0-3.71-0.52-4.813-1.561
				c-1.102-1.041-1.653-2.539-1.653-4.494c0-1.012,0.157-1.917,0.471-2.717c0.314-0.799,0.764-1.469,1.349-2.009
				c0.585-0.541,1.287-0.955,2.106-1.242c0.819-0.288,1.733-0.431,2.744-0.431c0.554,0,1.111,0.055,1.672,0.163
				c0.561,0.109,1.1,0.274,1.617,0.492l-0.61,1.863c-0.418-0.196-0.862-0.348-1.33-0.458c-0.468-0.109-0.936-0.164-1.404-0.164
				c-0.641,0-1.204,0.109-1.69,0.328c-0.487,0.219-0.896,0.521-1.229,0.906c-0.333,0.385-0.581,0.839-0.748,1.363
				c-0.166,0.523-0.249,1.095-0.249,1.716c0,1.357,0.342,2.421,1.025,3.191c0.684,0.771,1.678,1.156,2.984,1.156
				c0.456,0,0.924-0.046,1.404-0.138c0.48-0.092,0.942-0.224,1.386-0.396l0.48,1.846C140.701,43.092,140.146,43.233,139.518,43.342z
				"/>
		</g>
	</g>
	<g>
		<path fill="#4B4B4D" d="M148.421,32.192c0,1.209-1.016,2.158-2.338,2.158c-1.308,0-2.352-0.949-2.352-2.158
			c0-1.183,1.043-2.132,2.352-2.132C147.406,30.06,148.421,31.009,148.421,32.192z M144.316,32.192c0,0.949,0.752,1.703,1.781,1.703
			c1.002,0,1.74-0.754,1.74-1.69c0-0.949-0.738-1.716-1.753-1.716S144.316,31.256,144.316,32.192z M145.722,33.311h-0.529v-2.132
			c0.209-0.039,0.501-0.065,0.877-0.065c0.431,0,0.626,0.065,0.793,0.156c0.125,0.091,0.223,0.26,0.223,0.468
			c0,0.234-0.195,0.416-0.473,0.494v0.026c0.223,0.078,0.348,0.234,0.418,0.521c0.069,0.325,0.111,0.455,0.167,0.533h-0.57
			c-0.07-0.078-0.111-0.273-0.181-0.52c-0.042-0.234-0.181-0.338-0.473-0.338h-0.251V33.311z M145.736,32.102h0.25
			c0.292,0,0.529-0.091,0.529-0.312c0-0.195-0.153-0.325-0.487-0.325c-0.139,0-0.236,0.013-0.292,0.026V32.102z"/>
	</g>
</g>
</svg>
